<svg
  xmlns="http://www.w3.org/2000/svg"
  width="54.441"
  height="54.438"
  viewBox="0 0 54.441 54.438"
>
  <g id="Group_108680" data-name="Group 108680" transform="translate(0 0)">
    <g id="freepik--Balloon--inject-2" transform="translate(0 0)">
      <path
        id="Path_189453"
        data-name="Path 189453"
        d="M185.341,119.379c0-.339.3-.683.29-1.027s-.341-.66-.364-.993.257-.7.216-1.027-.39-.631-.439-.965.2-.719.136-1.05-.434-.6-.513-.929.144-.732.059-1.057-.48-.565-.58-.888.09-.742-.021-1.057-.513-.529-.644-.842.033-.747-.1-1.055-.56-.488-.706-.791-.023-.747-.18-1.045-.593-.441-.77-.734-.077-.742-.257-1.027-.626-.4-.816-.675-.133-.734-.334-1.006-.652-.349-.862-.613-.187-.721-.408-.978-.678-.3-.906-.547-.241-.706-.48-.945-.7-.257-.945-.48-.293-.685-.547-.906-.716-.2-.978-.408-.344-.662-.613-.862-.726-.144-1.006-.334-.39-.637-.678-.816-.734-.087-1.027-.257-.436-.6-.734-.77-.742-.033-1.045-.18-.48-.57-.791-.706-.739.023-1.055-.1-.513-.531-.842-.644-.734.08-1.057-.021-.562-.49-.888-.578-.726.133-1.057.056-.6-.447-.929-.513-.714.187-1.05.136-.626-.4-.963-.439-.7.241-1.027.216-.657-.352-1-.364-.678.293-1.027.293-.68-.305-1.027-.293-.66.341-1,.364-.7-.257-1.027-.216-.631.39-.963.439-.719-.2-1.05-.136-.6.434-.929.513-.732-.144-1.057-.056-.567.477-.888.578-.742-.09-1.06.021-.513.513-.839.644-.747-.033-1.055.1-.488.56-.791.706-.747.023-1.045.18-.444.593-.734.77-.744.08-1.027.257-.4.624-.675.814-.734.133-1.006.334-.349.652-.613.865-.721.185-.978.406-.3.678-.547.906-.706.241-.945.48-.257.7-.48.945-.678.287-.9.544-.2.714-.408.978-.662.341-.862.613-.144.726-.334,1-.637.39-.816.678-.087.734-.257,1.027-.606.436-.77.737-.033.739-.18,1.042-.57.483-.706.791.023.739-.1,1.055-.534.513-.644.842.077.734-.021,1.057-.493.562-.58.888.133.729.059,1.057-.447.6-.513.929.19.716.139,1.05-.4.626-.439.965.241.7.216,1.027-.354.655-.364.993.29.68.29,1.027-.3.68-.29,1.027.341.66.364,1-.257.7-.216,1.027.39.631.439.963-.2.721-.139,1.052.436.6.513.927-.146.734-.059,1.057.48.567.58.888-.09.742.021,1.06.513.526.644.842-.033.744.1,1.052.56.488.706.791.021.747.18,1.045.593.444.77.737.077.742.257,1.027.626.4.816.675.133.734.334,1.006.652.349.862.613.187.724.408.978.678.3.906.549.241.706.48.945.7.257.945.477.293.688.547.906.714.2.978.408.344.662.613.862.726.144,1.006.334.39.637.678.816.734.087,1.027.257.436.606.734.77.739.033,1.045.18.48.57.791.706.739-.023,1.055.1.513.534.842.644.734-.077,1.057.021.562.493.888.58.726-.133,1.057-.059.6.447.929.513.714-.19,1.05-.139.626.4.963.439.7-.241,1.027-.216.657.354,1,.367.678-.293,1.027-.293.683.3,1.027.293.66-.341.993-.367.7.257,1.027.216.631-.39.965-.439.719.2,1.05.139.6-.436.929-.513.731.146,1.057.059.567-.48.888-.58.742.09,1.06-.021.526-.513.839-.644.747.036,1.055-.1.488-.56.791-.706.747-.021,1.045-.18.444-.593.734-.77.742-.077,1.027-.257.4-.626.675-.816.734-.133,1.006-.334.349-.652.613-.862.721-.187.978-.408.3-.678.547-.906.706-.241.945-.48.257-.7.48-.945.685-.293.906-.547.2-.714.408-.978.662-.341.862-.613.144-.726.334-1.006.637-.39.816-.675.087-.737.257-1.027.6-.436.77-.734.033-.739.18-1.045.57-.48.706-.791-.023-.739.1-1.055.531-.513.644-.839-.08-.737.021-1.06.493-.56.58-.888-.133-.726-.059-1.057.447-.6.513-.927-.187-.716-.136-1.052.4-.626.439-.963-.241-.7-.216-1.027.352-.657.364-1S185.341,119.718,185.341,119.379Z"
        transform="translate(-131.198 -92.158)"
        fill="#0056f1"
      />
      <g
        id="Group_108681"
        data-name="Group 108681"
        transform="translate(1.718 1.696)"
      >
        <path
          id="Path_189460"
          data-name="Path 189460"
          d="M185.153,127.89a7.8,7.8,0,0,0-2.158-1.689c-1.8-1.137-6.465-2.217-8.3-3.21a18.456,18.456,0,0,1-4.6-3.883c-.715-.928-.6-1.629-1.18-1.685s-1.151.209-1.552,1.414.09,4.225.417,5.153a3.344,3.344,0,0,0,1.9,1.762c.611.246,1.977.895,1.975,1.477s-.075.7-.327.74-5.8.865-6.655,1.114-1.224,1.806-.98,3.034,1.212,1.614.92,2.486a4,4,0,0,0-.3,3.051c.5,1.157,1.429.978,1.066,1.877a2.91,2.91,0,0,0,.1,2.626c.463.676,1.074,1.114,1.07,1.933a4.519,4.519,0,0,0,2.325,2.88,61.648,61.648,0,0,0,8.4.615c3.925.1,7.743-.209,7.737-.209Q185.08,137.627,185.153,127.89Z"
          transform="translate(-153.476 -108.935)"
          fill="#fff"
        />
        <path
          id="Path_189460_-_Outline"
          data-name="Path 189460 - Outline"
          d="M167.582,115.916h0c.056,0,.113,0,.171.009a.8.8,0,0,1,.576.314,2.337,2.337,0,0,1,.277.521,4.228,4.228,0,0,0,.545.97,18.107,18.107,0,0,0,4.5,3.8,27.163,27.163,0,0,0,3.7,1.393,24.749,24.749,0,0,1,4.617,1.827,7.884,7.884,0,0,1,2.254,1.784.313.313,0,0,1,.05.172c-.049,6.473-.1,13.028-.144,19.484h0a.312.312,0,0,1-.3.313l-.025,0-.1.007-.367.026c-.289.02-.755.049-1.335.079-1.022.052-2.6.115-4.3.115-.561,0-1.111-.007-1.632-.02-2.284-.023-4.444-.181-5.529-.273a27.43,27.43,0,0,1-2.957-.354,2.461,2.461,0,0,1-.856-.5,5.954,5.954,0,0,1-.8-.83,5.711,5.711,0,0,1-.623-.945,2.056,2.056,0,0,1-.27-.9,1.9,1.9,0,0,0-.606-1.225c-.136-.165-.276-.336-.409-.529a2.577,2.577,0,0,1-.412-1.4,3.847,3.847,0,0,1,.284-1.521c.087-.215.055-.282.045-.3a1.025,1.025,0,0,0-.256-.255,2.661,2.661,0,0,1-.852-1.077,3.788,3.788,0,0,1,.169-2.932c.043-.119.083-.232.12-.342.108-.321-.021-.535-.3-.949a3.653,3.653,0,0,1-.632-1.376,4.406,4.406,0,0,1,.085-2.034,1.828,1.828,0,0,1,1.115-1.362c.643-.187,3.614-.651,6.13-1.035l.558-.086.034-.007a1.578,1.578,0,0,0,.034-.426c0-.078-.128-.291-.613-.6a7.834,7.834,0,0,0-1.166-.586,4.486,4.486,0,0,1-1.138-.674,2.925,2.925,0,0,1-.94-1.274,13.657,13.657,0,0,1-.5-2.542,7.731,7.731,0,0,1,.078-2.814,2.864,2.864,0,0,1,.733-1.26A1.417,1.417,0,0,1,167.582,115.916Zm16.068,10.9a9.661,9.661,0,0,0-2.012-1.533,24.538,24.538,0,0,0-4.479-1.762,27.354,27.354,0,0,1-3.805-1.437l0,0a17.2,17.2,0,0,1-2.775-2.015,15.841,15.841,0,0,1-1.921-1.95,4.832,4.832,0,0,1-.624-1.1c-.169-.389-.213-.449-.339-.461-.038,0-.075-.006-.11-.006h0c-.306,0-.755.125-1.114,1.207a7.04,7.04,0,0,0-.05,2.547,13.04,13.04,0,0,0,.466,2.4,3.013,3.013,0,0,0,1.722,1.576,8.336,8.336,0,0,1,1.268.639c.609.387.9.757.9,1.129a1.678,1.678,0,0,1-.1.7.609.609,0,0,1-.487.344l-.571.088c-1.327.2-5.364.819-6.05,1.018-.288.083-.539.425-.689.937a3.814,3.814,0,0,0-.071,1.736,3.042,3.042,0,0,0,.539,1.151,1.594,1.594,0,0,1,.371,1.5c-.039.117-.08.232-.124.354a3.193,3.193,0,0,0-.183,2.474,2.059,2.059,0,0,0,.675.841,1.4,1.4,0,0,1,.426.474.966.966,0,0,1-.032.8,2.617,2.617,0,0,0,.064,2.332c.117.171.249.331.376.486a2.462,2.462,0,0,1,.749,1.626,3,3,0,0,0,.755,1.454,3.427,3.427,0,0,0,1.343,1.124h0a27.854,27.854,0,0,0,2.833.331c1.077.092,3.221.248,5.485.271h0c.517.013,1.062.02,1.619.02,2.659,0,5.009-.15,5.8-.206C183.556,139.573,183.6,133.153,183.65,126.812Z"
          transform="translate(-152.287 -107.747)"
          fill="#2e353a"
        />
        <path
          id="Path_189461"
          data-name="Path 189461"
          d="M273.477,185.433q-3.5.53-7.032.78a1.087,1.087,0,0,1-1.132-1.151q.035-8.8.071-17.6a1.151,1.151,0,0,1,1.143-1.195q3.529.1,7.032.286a1.21,1.21,0,0,1,1.124,1.2q-.037,8.173-.073,16.358A1.381,1.381,0,0,1,273.477,185.433Z"
          transform="translate(-233.963 -147.6)"
          fill="#2e353a"
        />
        <path
          id="Path_189461_-_Outline"
          data-name="Path 189461 - Outline"
          d="M265.21,185.34a1.4,1.4,0,0,1-1.4-1.475l.071-17.583a1.464,1.464,0,0,1,1.454-1.513h.011c2.344.066,4.713.163,7.04.286h.006a1.522,1.522,0,0,1,1.415,1.512v0c-.025,5.416-.049,10.92-.073,16.358,0,0,0,.005,0,.008a1.693,1.693,0,0,1-1.389,1.617l-.009,0c-2.333.353-4.707.616-7.057.783h-.07Zm.126-19.944a.838.838,0,0,0-.827.87s0,.009,0,.013l-.071,17.6c0,.006,0,.012,0,.018a.774.774,0,0,0,.8.82c2.33-.165,4.685-.427,7-.776a1.073,1.073,0,0,0,.871-1.015c.024-5.437.048-10.939.073-16.353a.9.9,0,0,0-.831-.889C270.032,165.558,267.672,165.462,265.336,165.4Z"
          transform="translate(-232.776 -146.413)"
          fill="#2e353a"
        />
        <path
          id="Path_189462"
          data-name="Path 189462"
          d="M272.855,248.565a.82.82,0,0,0-.861-.859.974.974,0,0,0-.87.982.818.818,0,0,0,.861.865A.991.991,0,0,0,272.855,248.565Z"
          transform="translate(-238.563 -212.052)"
          fill="#fff"
        />
      </g>
    </g>
    <path
      id="Path_189463"
      data-name="Path 189463"
      d="M161.811,206.994c.323.023.631.341.96.354s.657-.282.983-.282.66.293.986.282.637-.331.96-.354.678.257,1,.208.611-.375.932-.424.7.193,1.027.133.58-.421.9-.493.708.141,1.027.056.547-.462.857-.56.716.087,1.027-.021.513-.513.814-.621.721.033,1.027-.1.47-.539.77-.683.721-.021,1.009-.172.429-.575.711-.737.719-.077.993-.257.385-.606.655-.788.708-.128.97-.323.339-.631.593-.834.7-.18.945-.393.29-.654.529-.875.683-.234.914-.465.241-.672.462-.911.665-.282.878-.531.19-.688.393-.945.639-.331.834-.593.139-.7.323-.97.613-.377.785-.655.087-.711.257-.993.585-.421.737-.708.033-.716.175-1.009.552-.465.683-.77-.023-.714.1-1.027.513-.513.621-.814-.077-.711.021-1.027.475-.542.56-.857-.131-.7-.056-1.027.431-.575.493-.9-.182-.69-.133-1.027.388-.608.424-.932-.234-.675-.208-1,.341-.631.352-.96-.282-.657-.282-.983.3-.66.282-.986-.329-.637-.352-.96.244-.678.208-1-.377-.611-.424-.932.193-.7.133-1.027-.421-.58-.493-.9a.733.733,0,0,1-.013-.213c-18.07,15.4-40.554,14.212-50.793,12.618a.631.631,0,0,0,.018.2c.085.316.462.547.56.857s-.087.716.021,1.027.513.513.621.811-.033.721.1,1.027.539.472.683.77.021.721.172,1.009.575.429.737.711.077.716.257.991.606.385.788.655.128.708.323.973.631.336.834.593.18.7.393.945.655.29.875.529.234.683.465.914.672.239.911.462.282.662.531.875.688.19.945.393.331.642.593.834.7.139.97.323.377.613.655.788.711.085.993.257.421.583.708.737.716.031,1.009.175.465.549.77.68.714-.023,1.027.1.513.513.814.621.711-.074,1.027.021.542.475.857.56.7-.128,1.027-.056.578.431.9.493.69-.182,1.014-.133.608.388.932.423S161.482,206.971,161.811,206.994Z"
      transform="translate(-136.518 -153.737)"
      opacity="0.1"
    />
  </g>
</svg>
